<?xml version="1.0" encoding="UTF-8"?>
<svg version="1.1" xmlns="http://www.w3.org/2000/svg" width="345" height="313">
<path d="M0 0 C113.85 0 227.7 0 345 0 C345 103.29 345 206.58 345 313 C231.15 313 117.3 313 0 313 C0 209.71 0 106.42 0 0 Z " fill="#FCFDFD" transform="translate(0,0)"/>
<path d="M0 0 C2.64 0 5.28 0 8 0 C8 0.66 8 1.32 8 2 C8.845625 1.938125 9.69125 1.87625 10.5625 1.8125 C13.88444769 1.99369715 15.85690899 2.74058266 18.81640625 4.14453125 C21.65803139 5.25779763 24.51834286 5.8544866 27.5 6.5 C31.07547721 7.27958464 34.42737198 8.01763324 37.75 9.5625 C41.21602865 11.09555113 44.47567349 11.85462166 48.1796875 12.5703125 C50 13 50 13 51 14 C51.12509834 16.64651343 51.18605995 19.26822219 51.20532227 21.91625977 C51.21522186 22.74545929 51.22512146 23.57465881 51.23532104 24.4289856 C51.2670312 27.18309629 51.29173088 29.93722426 51.31640625 32.69140625 C51.33696757 34.59570273 51.35796382 36.49999455 51.37937927 38.40428162 C51.43468485 43.42662806 51.48405656 48.44901627 51.53222656 53.47143555 C51.58237979 58.59232315 51.63809803 63.7131498 51.69335938 68.83398438 C51.80104467 78.8892709 51.90246645 88.94461025 52 99 C53.32 99 54.64 99 56 99 C56 98.34 56 97.68 56 97 C56.56847656 96.70867187 57.13695312 96.41734375 57.72265625 96.1171875 C62.53772785 93.56093914 66.61093315 90.87106274 70.58984375 87.13671875 C72 86 72 86 74 86 C74.2475 85.38125 74.495 84.7625 74.75 84.125 C76 82 76 82 78 81.0625 C80.82394106 79.56228131 81.03892782 78.00545818 82 75 C82.31301046 72.20734324 82.31301046 72.20734324 82.25 69.375 C82.25515625 68.43398437 82.2603125 67.49296875 82.265625 66.5234375 C82.17167307 63.75424779 82.17167307 63.75424779 80 61 C80 60.01 80 59.02 80 58 C86.92970367 57.48668862 91.74050322 59.10616229 98 62 C99.134375 62.515625 100.26875 63.03125 101.4375 63.5625 C105.34385979 65.75387256 107.26270598 67.89172685 109 72 C110.37953758 81.04658296 108.24580733 86.74844281 103 94 C102.24711887 95.20654028 101.49661791 96.41457399 100.75 97.625 C100.1725 98.40875 99.595 99.1925 99 100 C98.34 100 97.68 100 97 100 C96.835 100.680625 96.67 101.36125 96.5 102.0625 C94.61201087 105.75981204 92.13118935 107.72916415 88.96484375 110.3515625 C86.86520012 112.04981305 86.86520012 112.04981305 84.6875 114.4375 C83 116 83 116 80 116 C79.67 116.99 79.34 117.98 79 119 C77.20355451 120.50901421 75.33726449 121.9358246 73.4375 123.3125 C72.33579702 124.11569277 71.23423465 124.91907843 70.1328125 125.72265625 C68.58207031 126.84994141 68.58207031 126.84994141 67 128 C65.60229822 129.08092162 64.20614826 130.16385713 62.8125 131.25 C59.41518298 133.81039967 55.84384962 135.85330892 52.078125 137.82421875 C49.92763694 138.97055338 49.92763694 138.97055338 47.921875 140.64453125 C46 142 46 142 43 142 C43 142.66 43 143.32 43 144 C41.96875 144.495 40.9375 144.99 39.875 145.5 C37.01486904 146.91468843 34.23988675 148.42745805 31.4921875 150.046875 C30.87617676 150.40845703 30.26016602 150.77003906 29.62548828 151.14257812 C28.38769165 151.87346143 27.15415785 152.61161894 25.92529297 153.35742188 C22.56812161 155.33563814 21.00894589 156 17 156 C17 156.66 17 157.32 17 158 C13.04434229 159.92222361 9.0850006 161.83674128 5.125 163.75 C4.01640625 164.28882813 2.9078125 164.82765625 1.765625 165.3828125 C-3.88032664 168.10615388 -9.51958723 170.69107572 -15.36621094 172.95166016 C-18.49525433 174.19712848 -21.56589097 175.55768994 -24.6484375 176.9140625 C-31.54006454 179.88095369 -38.52894185 182.38099336 -45.65380859 184.72509766 C-47.66166887 185.38708974 -49.66482546 186.06216586 -51.66796875 186.73828125 C-52.95807687 187.1674384 -54.24843225 187.59585314 -55.5390625 188.0234375 C-56.68584473 188.40419434 -57.83262695 188.78495117 -59.01416016 189.17724609 C-62 190 -62 190 -66 190 C-66.33 219.37 -66.66 248.74 -67 279 C-81.61555233 277.87572674 -81.61555233 277.87572674 -87.390625 276.546875 C-89.30319092 276.11604614 -89.30319092 276.11604614 -91.25439453 275.67651367 C-92.58627109 275.36771057 -93.91813941 275.05887197 -95.25 274.75 C-98.06412465 274.11151396 -100.87969168 273.47950721 -103.6953125 272.84765625 C-104.39425629 272.68997269 -105.09320007 272.53228912 -105.81332397 272.36982727 C-113.58094595 270.62620569 -121.38877898 269.09213772 -129.20800781 267.59863281 C-130.15256836 267.41526367 -131.09712891 267.23189453 -132.0703125 267.04296875 C-132.88258301 266.88852295 -133.69485352 266.73407715 -134.53173828 266.57495117 C-137.40517571 265.90561931 -140.20103894 264.93298702 -143 264 C-143.33 244.2 -143.66 224.4 -144 204 C-149.383125 204.061875 -154.76625 204.12375 -160.3125 204.1875 C-200.15429098 204.33080919 -200.15429098 204.33080919 -214.66015625 191.52734375 C-218.08544116 187.62271868 -218.56984512 183.885211 -218.421875 178.83203125 C-215.76149592 160.97300499 -196.5416709 147.29496932 -183.1887207 137.35595703 C-176.81798207 132.71214264 -170.17221275 128.53079008 -163.4375 124.4375 C-162.58027344 123.91236816 -161.72304687 123.38723633 -160.83984375 122.84619141 C-159.6178125 122.11601807 -159.6178125 122.11601807 -158.37109375 121.37109375 C-157.2871936 120.7203186 -157.2871936 120.7203186 -156.18139648 120.05639648 C-153.79594222 118.90117985 -151.60925232 118.41222811 -149 118 C-151.65366998 121.37739816 -154.22946289 124.28472408 -157.5625 127 C-161.8749842 130.61722531 -164.48364936 134.03786755 -165.9375 139.5625 C-166.00815909 143.44874997 -165.21735496 144.89570305 -163 148 C-163 148.66 -163 149.32 -163 150 C-145.4701065 155.96158322 -125.01823065 153.80049979 -107 151 C-105.39983782 150.76755188 -103.79957281 150.53581084 -102.19921875 150.3046875 C-100.54920712 150.05911262 -98.89946031 149.81175105 -97.25 149.5625 C-96.51789307 149.45252686 -95.78578613 149.34255371 -95.03149414 149.22924805 C-88.27639374 148.15516837 -81.64933242 146.5921542 -75 145 C-73.91396484 144.740979 -72.82792969 144.48195801 -71.70898438 144.21508789 C-56.4942323 140.55231896 -41.45870593 136.52187853 -26.53759766 131.80224609 C-24.10439569 131.03300406 -21.66822257 130.27420792 -19.23046875 129.51953125 C-13.46858049 127.73306656 -7.71794964 125.92338945 -2 124 C-2 121.36 -2 118.72 -2 116 C-1.34 116 -0.68 116 0 116 C0 77.72 0 39.44 0 0 Z " fill="#464647" transform="translate(224,26)"/>
<path d="M0 0 C1.23621094 0.26941406 2.47242188 0.53882813 3.74609375 0.81640625 C5.14021484 1.12384766 5.14021484 1.12384766 6.5625 1.4375 C6.5625 2.0975 6.5625 2.7575 6.5625 3.4375 C7.861875 3.416875 9.16125 3.39625 10.5 3.375 C11.85415633 3.35350546 13.21006083 3.36601801 14.5625 3.4375 C15.0575 3.9325 15.0575 3.9325 15.5625 4.4375 C19.17819793 5.18775732 22.80545465 5.85707434 26.4375 6.5234375 C27.46875 6.82507812 28.5 7.12671875 29.5625 7.4375 C30.0575 8.9225 30.0575 8.9225 30.5625 10.4375 C29.86125 10.61925781 29.16 10.80101562 28.4375 10.98828125 C21.94776897 12.70380782 21.94776897 12.70380782 15.625 14.9375 C11.36609546 16.61313457 6.98590276 17.60977944 2.54296875 18.6796875 C-2.21591033 19.88967772 -7.03345515 21.23547757 -11.4375 23.4375 C-11.7675 65.3475 -12.0975 107.2575 -12.4375 150.4375 C-17.15316977 152.45850133 -20.37437245 153.82511338 -25.16796875 154.75390625 C-26.21919922 154.96080078 -27.27042969 155.16769531 -28.35351562 155.38085938 C-29.43310547 155.58517578 -30.51269531 155.78949219 -31.625 156 C-33.21538086 156.31227539 -33.21538086 156.31227539 -34.83789062 156.63085938 C-45.51697571 158.70680583 -56.16277918 160.56163631 -67 161.5625 C-67.85529297 161.64886719 -68.71058594 161.73523438 -69.59179688 161.82421875 C-75.95506498 162.42660176 -81.98178873 162.4375 -88.4375 162.4375 C-88.4375 114.5875 -88.4375 66.7375 -88.4375 17.4375 C-84.1475 16.4475 -79.8575 15.4575 -75.4375 14.4375 C-72.84975311 13.78817606 -70.26538432 13.12493582 -67.6875 12.4375 C-66.51703125 12.128125 -65.3465625 11.81875 -64.140625 11.5 C-61.43033529 10.72236413 -58.80136252 9.88778566 -56.140625 8.96875 C-50.28053202 6.98633011 -44.28215393 5.69211624 -38.25390625 4.33203125 C-32.51920105 3.00993328 -26.98555564 1.39824748 -21.4375 -0.5625 C-13.74455948 -3.21523811 -7.80559205 -1.70979635 0 0 Z " fill="#434343" transform="translate(169.4375,10.5625)"/>
<path d="M0 0 C0 40.26 0 80.52 0 122 C-17.16 122 -34.32 122 -52 122 C-52.04010881 98.37145477 -52.04010881 98.37145477 -52.04882812 88.328125 C-52.05481449 81.46516144 -52.06190931 74.60221118 -52.07543945 67.73925781 C-52.08627539 62.20851877 -52.09227835 56.67779397 -52.09487724 51.14704514 C-52.09673021 49.03305207 -52.10034838 46.91905981 -52.10573006 44.80507278 C-52.11294983 41.85261578 -52.11399054 38.90021826 -52.11352539 35.94775391 C-52.11712067 35.0666243 -52.12071594 34.18549469 -52.12442017 33.27766418 C-52.11405216 27.22810432 -52.11405216 27.22810432 -51 25 C-48.09740189 23.6250851 -46.23861295 23 -43 23 C-43 22.34 -43 21.68 -43 21 C-40.89915791 19.99303432 -38.79420511 18.9946411 -36.6875 18 C-35.51574219 17.443125 -34.34398437 16.88625 -33.13671875 16.3125 C-30 15 -30 15 -27 15 C-27 14.34 -27 13.68 -27 13 C-24.06562147 11.53281074 -21.13107822 10.06597519 -18.1953125 8.6015625 C-16.28996666 7.64656031 -14.38771828 6.68527575 -12.4921875 5.7109375 C-7.20683453 3 -7.20683453 3 -5 3 C-5 2.34 -5 1.68 -5 1 C-2 0 -2 0 0 0 Z " fill="#484848" transform="translate(275,176)"/>
<path d="M0 0 C1.32 0 2.64 0 4 0 C4 29.37 4 58.74 4 89 C-10.61555233 87.87572674 -10.61555233 87.87572674 -16.390625 86.546875 C-18.30331177 86.11604614 -18.30331177 86.11604614 -20.25463867 85.67651367 C-21.58643905 85.367733 -22.91822589 85.05889394 -24.25 84.75 C-27.06281947 84.11150116 -29.87707206 83.47944061 -32.69140625 82.84765625 C-33.73951225 82.61113091 -33.73951225 82.61113091 -34.80879211 82.36982727 C-42.60588738 80.6197043 -50.44477953 79.08597956 -58.29589844 77.59863281 C-59.24368164 77.41526367 -60.19146484 77.23189453 -61.16796875 77.04296875 C-61.98547607 76.88852295 -62.8029834 76.73407715 -63.64526367 76.57495117 C-66 76 -66 76 -71 74 C-71 54.2 -71 34.4 -71 14 C-62.42 13.01 -53.84 12.02 -45 11 C-38.96449261 9.87173998 -38.96449261 9.87173998 -32.953125 8.625 C-30.33872577 8.07168799 -27.77860734 7.67190712 -25.125 7.375 C-22.13690364 7.34284416 -22.13690364 7.34284416 -21 6 C-19.50879612 5.64791019 -18.00617308 5.34374528 -16.5 5.0625 C-15.6028125 4.88847656 -14.705625 4.71445313 -13.78125 4.53515625 C-12.8634375 4.35855469 -11.945625 4.18195313 -11 4 C-9.33152237 3.67585299 -7.66466261 3.34320154 -6 3 C-5.278125 2.855625 -4.55625 2.71125 -3.8125 2.5625 C-1.77343377 2.08393139 -1.77343377 2.08393139 0 0 Z " fill="#3B3B3B" transform="translate(153,216)"/>
<path d="M0 0 C2.64 0 5.28 0 8 0 C8 0.66 8 1.32 8 2 C9.2684375 1.9071875 9.2684375 1.9071875 10.5625 1.8125 C13.88444769 1.99369715 15.85690899 2.74058266 18.81640625 4.14453125 C21.65803139 5.25779763 24.51834286 5.8544866 27.5 6.5 C31.07547721 7.27958464 34.42737198 8.01763324 37.75 9.5625 C41.21602865 11.09555113 44.47567349 11.85462166 48.1796875 12.5703125 C50 13 50 13 51 14 C51.09500548 16.46444057 51.12557985 18.90074626 51.11352539 21.36547852 C51.11367142 22.13615662 51.11381744 22.90683472 51.1139679 23.7008667 C51.1132686 26.26024139 51.10547545 28.8195442 51.09765625 31.37890625 C51.09579213 33.14867615 51.0943682 34.91844656 51.09336853 36.68821716 C51.08954288 41.35551366 51.0797122 46.02277923 51.06866455 50.69006348 C51.05845144 55.44897035 51.05387113 60.20788221 51.04882812 64.96679688 C51.03808997 74.31121153 51.02101299 83.6556032 51 93 C50.18958252 93.33265869 49.37916504 93.66531738 48.54418945 94.00805664 C47.47386475 94.45012451 46.40354004 94.89219238 45.30078125 95.34765625 C44.24286377 95.78343994 43.18494629 96.21922363 42.0949707 96.66821289 C39.39449575 97.83024577 36.79179502 99.07671838 34.1875 100.4375 C28.80631364 103.19775255 23.24084339 105.37158178 17.61328125 107.5703125 C15.11449463 108.55902158 12.67922912 109.58349616 10.23046875 110.6796875 C7 112 7 112 4 112 C4 112.66 4 113.32 4 114 C2.02 114.495 2.02 114.495 0 115 C0 77.05 0 39.1 0 0 Z " fill="#5A5A5A" transform="translate(224,26)"/>
<path d="M0 0 C6.92970367 -0.51331138 11.74050322 1.10616229 18 4 C19.7015625 4.7734375 19.7015625 4.7734375 21.4375 5.5625 C25.34385979 7.75387256 27.26270598 9.89172685 29 14 C30.37953758 23.04658296 28.24580733 28.74844281 23 36 C22.24711887 37.20654028 21.49661791 38.41457399 20.75 39.625 C20.1725 40.40875 19.595 41.1925 19 42 C18.34 42 17.68 42 17 42 C16.835 42.680625 16.67 43.36125 16.5 44.0625 C14.61201087 47.75981204 12.13118935 49.72916415 8.96484375 52.3515625 C6.86520012 54.04981305 6.86520012 54.04981305 4.6875 56.4375 C3 58 3 58 0 58 C-0.33 58.99 -0.66 59.98 -1 61 C-2.79644549 62.50901421 -4.66273551 63.9358246 -6.5625 65.3125 C-10.91872305 68.4788919 -15.19931442 71.70395882 -19.37890625 75.1015625 C-19.91386719 75.39804688 -20.44882812 75.69453125 -21 76 C-21.99 75.67 -22.98 75.34 -24 75 C-19.25 71 -19.25 71 -17 71 C-17.33 70.01 -17.66 69.02 -18 68 C-17.21625 67.566875 -16.4325 67.13375 -15.625 66.6875 C-12.78301625 65.10779753 -12.78301625 65.10779753 -11 62 C-9.08984375 61.12109375 -9.08984375 61.12109375 -6.9375 60.4375 C-4.81992279 59.79447564 -4.81992279 59.79447564 -3 59 C-2.67 58.34 -2.34 57.68 -2 57 C-1.34 57 -0.68 57 0 57 C0 53.37 0 49.74 0 46 C1.98 45.505 1.98 45.505 4 45 C4 44.67 4 44.34 4 44 C5.03060547 44.08701172 5.03060547 44.08701172 6.08203125 44.17578125 C8.79803821 44.31177588 11.30353769 44.36908099 14 44 C16.23025247 41.6797907 16.23025247 41.6797907 17 39 C16.67 39 16.34 39 16 39 C16 35.37 16 31.74 16 28 C16.66 28 17.32 28 18 28 C17.98839844 27.01257813 17.97679687 26.02515625 17.96484375 25.0078125 C17.95582031 23.72648437 17.94679688 22.44515625 17.9375 21.125 C17.92589844 19.84882812 17.91429687 18.57265625 17.90234375 17.2578125 C18 14 18 14 19 12 C16.36 11.34 13.72 10.68 11 10 C11 10.66 11 11.32 11 12 C10.34 12.33 9.68 12.66 9 13 C8.814375 14.7015625 8.814375 14.7015625 8.625 16.4375 C8 20 8 20 6.0625 21.4375 C4 22 4 22 2 22 C1.34 24.31 0.68 26.62 0 29 C-0.99 28.67 -1.98 28.34 -3 28 C-5.16191948 29.84999433 -5.16191948 29.84999433 -5.75 32.4375 C-7.46254345 35.94821407 -9.4378424 36.57513696 -13 38 C-15.57451348 38.80913281 -17.26093182 39 -20 39 C-22.18777466 40.9375006 -22.18777466 40.9375006 -24 43 C-25.32 42.34 -26.64 41.68 -28 41 C-26.68 41 -25.36 41 -24 41 C-24 40.34 -24 39.68 -24 39 C-23.14728516 38.56300781 -23.14728516 38.56300781 -22.27734375 38.1171875 C-17.46227215 35.56093914 -13.38906685 32.87106274 -9.41015625 29.13671875 C-8 28 -8 28 -6 28 C-5.7525 27.38125 -5.505 26.7625 -5.25 26.125 C-4 24 -4 24 -2 23.0625 C0.82394106 21.56228131 1.03892782 20.00545818 2 17 C2.31301046 14.20734324 2.31301046 14.20734324 2.25 11.375 C2.25515625 10.43398437 2.2603125 9.49296875 2.265625 8.5234375 C2.17167307 5.75424779 2.17167307 5.75424779 0 3 C0 2.01 0 1.02 0 0 Z " fill="#8E9099" transform="translate(304,84)"/>
<path d="M0 0 C0 3.3 0 6.6 0 10 C-2.51840815 10.677219 -5.03908724 11.34191174 -7.5625 12 C-8.26697266 12.19078125 -8.97144531 12.3815625 -9.69726562 12.578125 C-14.27060209 13.75834086 -18.27776365 14.19856973 -23 14 C-23 14.66 -23 15.32 -23 16 C-33.6545158 18.43482452 -44.39004311 19.68153275 -55.25 20.75 C-55.94602325 20.82070709 -56.64204651 20.89141418 -57.35916138 20.96426392 C-59.36885169 21.16655435 -61.3797317 21.35691525 -63.390625 21.546875 C-64.56657227 21.65870117 -65.74251953 21.77052734 -66.95410156 21.88574219 C-70 22 -70 22 -74 21 C-74 17.7 -74 14.4 -74 11 C-69.83539986 10.25962664 -65.92073457 9.95189506 -61.6875 10 C-52.59818204 10.31559068 -52.59818204 10.31559068 -44 8 C-40.2497423 7.55944653 -36.50017927 7.18297735 -32.74023438 6.83789062 C-28.44347407 6.40504745 -24.98682892 5.73397502 -21 4 C-18.63407863 3.43936784 -16.25794822 2.92066678 -13.875 2.4375 C-1.92746114 0 -1.92746114 0 0 0 Z " fill="#1B1B1B" transform="translate(156,219)"/>
<path d="M0 0 C1.65 0 3.3 0 5 0 C5 1.98 5 3.96 5 6 C-1.5 10 -1.5 10 -6 10 C-6 10.66 -6 11.32 -6 12 C-9.0469629 13.69433918 -11.82821466 14.49467112 -15.25 15.125 C-16.14203125 15.29257813 -17.0340625 15.46015625 -17.953125 15.6328125 C-18.96632812 15.81457031 -18.96632812 15.81457031 -20 16 C-20 16.66 -20 17.32 -20 18 C-26.61943116 21.50829852 -32.68823518 24.37516337 -40 26 C-40.66 26.66 -41.32 27.32 -42 28 C-44.625 27.625 -44.625 27.625 -47 27 C-47 25.02 -47 23.04 -47 21 C-45.35 20.34 -43.7 19.68 -42 19 C-42 18.34 -42 17.68 -42 17 C-38.58204184 15.54043949 -35.31888701 14.57781353 -31.6875 13.8125 C-25.61565519 12.3585719 -20.15876462 10.0478112 -14.52026367 7.42504883 C-11.02707126 5.81310836 -7.81968207 4.54461748 -4 4 C-4 3.34 -4 2.68 -4 2 C-2.68 2 -1.36 2 0 2 C0 1.34 0 0.68 0 0 Z " fill="#212121" transform="translate(270,121)"/>
<path d="M0 0 C0.33 0 0.66 0 1 0 C1 4.95 1 9.9 1 15 C1.66 14.67 2.32 14.34 3 14 C3.40729228 11.67843403 3.74438677 9.3431213 4 7 C4.66 7 5.32 7 6 7 C6.1560529 15.89501504 5.87517196 21.97845303 0 29 C-0.66 29 -1.32 29 -2 29 C-2.165 29.680625 -2.33 30.36125 -2.5 31.0625 C-4.38798913 34.75981204 -6.86881065 36.72916415 -10.03515625 39.3515625 C-12.13479988 41.04981305 -12.13479988 41.04981305 -14.3125 43.4375 C-16 45 -16 45 -19 45 C-19.33 45.99 -19.66 46.98 -20 48 C-21.79644549 49.50901421 -23.66273551 50.9358246 -25.5625 52.3125 C-29.91872305 55.4788919 -34.19931442 58.70395882 -38.37890625 62.1015625 C-39.18134766 62.54628906 -39.18134766 62.54628906 -40 63 C-40.99 62.67 -41.98 62.34 -43 62 C-38.25 58 -38.25 58 -36 58 C-36.495 56.515 -36.495 56.515 -37 55 C-36.21625 54.566875 -35.4325 54.13375 -34.625 53.6875 C-31.78301625 52.10779753 -31.78301625 52.10779753 -30 49 C-28.08984375 48.12109375 -28.08984375 48.12109375 -25.9375 47.4375 C-23.81992279 46.79447564 -23.81992279 46.79447564 -22 46 C-21.67 45.34 -21.34 44.68 -21 44 C-20.34 44 -19.68 44 -19 44 C-19 40.37 -19 36.74 -19 33 C-17.02 32.505 -17.02 32.505 -15 32 C-15 31.67 -15 31.34 -15 31 C-14.31292969 31.05800781 -13.62585938 31.11601562 -12.91796875 31.17578125 C-10.20196179 31.31177588 -7.69646231 31.36908099 -5 31 C-2.76974753 28.6797907 -2.76974753 28.6797907 -2 26 C-2.33 26 -2.66 26 -3 26 C-3 22.37 -3 18.74 -3 15 C-2.34 15 -1.68 15 -1 15 C-1.01160156 14.00097656 -1.02320313 13.00195312 -1.03515625 11.97265625 C-1.04417969 10.68230469 -1.05320312 9.39195313 -1.0625 8.0625 C-1.07410156 6.77472656 -1.08570313 5.48695312 -1.09765625 4.16015625 C-1 1 -1 1 0 0 Z " fill="#83828A" transform="translate(323,97)"/>
<path d="M0 0 C3.96 0.33 7.92 0.66 12 1 C11.67 1.99 11.34 2.98 11 4 C9.35 4 7.7 4 6 4 C6.495 5.98 6.495 5.98 7 8 C6.34 8.33 5.68 8.66 5 9 C4.814375 10.7015625 4.814375 10.7015625 4.625 12.4375 C4 16 4 16 2.0625 17.4375 C0 18 0 18 -2 18 C-2.66 20.31 -3.32 22.62 -4 25 C-4.99 24.67 -5.98 24.34 -7 24 C-9.16191948 25.84999433 -9.16191948 25.84999433 -9.75 28.4375 C-11.46254345 31.94821407 -13.4378424 32.57513696 -17 34 C-19.57451348 34.80913281 -21.26093182 35 -24 35 C-26.18777466 36.9375006 -26.18777466 36.9375006 -28 39 C-29.32 38.34 -30.64 37.68 -32 37 C-30.68 37 -29.36 37 -28 37 C-28 36.34 -28 35.68 -28 35 C-27.14728516 34.56300781 -27.14728516 34.56300781 -26.27734375 34.1171875 C-21.46227215 31.56093914 -17.38906685 28.87106274 -13.41015625 25.13671875 C-12 24 -12 24 -10 24 C-9.7525 23.38125 -9.505 22.7625 -9.25 22.125 C-8 20 -8 20 -6 19.0625 C-3.24456093 17.59867299 -2.96037913 15.88113739 -2 13 C-1.67 12.67 -1.34 12.34 -1 12 C-0.76572222 9.98405418 -0.58663876 7.961526 -0.4375 5.9375 C-0.293125 3.978125 -0.14875 2.01875 0 0 Z " fill="#7C7B81" transform="translate(308,88)"/>
<path d="M0 0 C6.38140605 -0.49087739 11.71774076 1.60503982 17.5 4.0625 C20.64481406 5.24180527 23.82059492 5.87631123 27.109375 6.53515625 C29 7 29 7 30 8 C30.09311889 9.50418739 30.11746028 11.01271356 30.11352539 12.51977539 C30.11344986 13.48069595 30.11337433 14.44161652 30.11329651 15.43165588 C30.10813522 16.476436 30.10297394 17.52121613 30.09765625 18.59765625 C30.0962413 19.66165146 30.09482635 20.72564667 30.09336853 21.82188416 C30.08775064 25.23545083 30.07519511 28.648953 30.0625 32.0625 C30.05748731 34.37044176 30.052924 36.67838455 30.04882812 38.98632812 C30.0377754 44.65757426 30.02101987 50.32878253 30 56 C29.67 56 29.34 56 29 56 C27.62757943 47.14534578 28.11338466 38.35298028 28.4375 29.4375 C28.4908247 27.84051439 28.54356405 26.24350913 28.59570312 24.64648438 C28.72371708 20.76406324 28.85966394 16.88199447 29 13 C28.34 13 27.68 13 27 13 C27 12.01 27 11.02 27 10 C26.13375 10.33 25.2675 10.66 24.375 11 C21.04281725 11.98731341 18.44840462 12.16420974 15 12 C15.33 11.34 15.66 10.68 16 10 C16.66 10 17.32 10 18 10 C18 9.01 18 8.02 18 7 C17.154375 6.731875 16.30875 6.46375 15.4375 6.1875 C12 5 12 5 8.4375 3.4375 C5.55057934 2.23024227 3.07373688 1.46571771 0 1 C0 0.67 0 0.34 0 0 Z " fill="#76757A" transform="translate(245,32)"/>
<path d="M0 0 C2.64 0 5.28 0 8 0 C8 1.32 8 2.64 8 4 C6.68 4.33 5.36 4.66 4 5 C4 6.98 4 8.96 4 11 C3.360625 11.103125 2.72125 11.20625 2.0625 11.3125 C1.381875 11.539375 0.70125 11.76625 0 12 C-0.33 12.99 -0.66 13.98 -1 15 C-2.79644549 16.50901421 -4.66273551 17.9358246 -6.5625 19.3125 C-10.91872305 22.4788919 -15.19931442 25.70395882 -19.37890625 29.1015625 C-19.91386719 29.39804688 -20.44882812 29.69453125 -21 30 C-21.99 29.67 -22.98 29.34 -24 29 C-19.25 25 -19.25 25 -17 25 C-17.33 24.01 -17.66 23.02 -18 22 C-17.21625 21.566875 -16.4325 21.13375 -15.625 20.6875 C-12.78301625 19.10779753 -12.78301625 19.10779753 -11 16 C-9.08984375 15.12109375 -9.08984375 15.12109375 -6.9375 14.4375 C-4.81992279 13.79447564 -4.81992279 13.79447564 -3 13 C-2.67 12.34 -2.34 11.68 -2 11 C-1.34 11 -0.68 11 0 11 C0 7.37 0 3.74 0 0 Z " fill="#7B7A80" transform="translate(304,130)"/>
<path d="M0 0 C2.64 0 5.28 0 8 0 C8 0.66 8 1.32 8 2 C9.98 2 11.96 2 14 2 C14.33 2.66 14.66 3.32 15 4 C9.31379141 4.19607616 6.6882672 3.89608907 1 2 C1 35 1 68 1 102 C0.67 102 0.34 102 0 102 C0 68.34 0 34.68 0 0 Z " fill="#616263" transform="translate(224,26)"/>
<path d="M0 0 C1.32 0 2.64 0 4 0 C4 3.63 4 7.26 4 11 C3.67 11 3.34 11 3 11 C3 8.36 3 5.72 3 3 C2.09378906 3.26554688 1.18757813 3.53109375 0.25390625 3.8046875 C-6.45952237 5.75122659 -13.14711094 7.60683025 -20 9 C-20.78632813 9.17402344 -21.57265625 9.34804687 -22.3828125 9.52734375 C-27.83272516 10.6976228 -33.18893835 11.36684372 -38.75 11.75390625 C-41.03305818 11.87181477 -41.03305818 11.87181477 -43 13 C-45.71262116 13.2322646 -48.40773126 13.41936235 -51.125 13.5625 C-51.87910156 13.60568359 -52.63320312 13.64886719 -53.41015625 13.69335938 C-55.27321888 13.7994832 -57.13658524 13.90025001 -59 14 C-56.03588534 12.34053877 -53.54691866 11.63366119 -50.18359375 11.21875 C-48.79660278 11.04061768 -48.79660278 11.04061768 -47.3815918 10.85888672 C-45.92426636 10.68123779 -45.92426636 10.68123779 -44.4375 10.5 C-42.45290432 10.2438918 -40.46852544 9.98609756 -38.484375 9.7265625 C-37.0622168 9.5414209 -37.0622168 9.5414209 -35.61132812 9.35253906 C-27.80696795 8.91508388 -27.80696795 8.91508388 -21 6 C-19.50879612 5.64791019 -18.00617308 5.34374528 -16.5 5.0625 C-15.6028125 4.88847656 -14.705625 4.71445313 -13.78125 4.53515625 C-12.8634375 4.35855469 -11.945625 4.18195313 -11 4 C-9.33152237 3.67585299 -7.66466261 3.34320154 -6 3 C-5.278125 2.855625 -4.55625 2.71125 -3.8125 2.5625 C-1.77343377 2.08393139 -1.77343377 2.08393139 0 0 Z " fill="#2C2C2C" transform="translate(153,216)"/>
<path d="M0 0 C-1.34232924 0.99533257 -2.69961198 1.97050933 -4.0625 2.9375 C-4.81660156 3.48277344 -5.57070312 4.02804688 -6.34765625 4.58984375 C-9 6 -9 6 -16 7 C-16.33 16.9 -16.66 26.8 -17 37 C-17.33 37 -17.66 37 -18 37 C-18 26.11 -18 15.22 -18 4 C-15.40125 3.154375 -12.8025 2.30875 -10.125 1.4375 C-9.30789551 1.16736084 -8.49079102 0.89722168 -7.64892578 0.61889648 C-2.22222222 -1.11111111 -2.22222222 -1.11111111 0 0 Z " fill="#E3E7E9" transform="translate(176,212)"/>
<path d="M0 0 C-3.77149568 2.35495123 -7.76772817 2.62624742 -12.08984375 3.0703125 C-12.87138321 3.15626678 -13.65292267 3.24222107 -14.45814514 3.33078003 C-16.10769373 3.5107465 -17.75764806 3.68702721 -19.40795898 3.85986328 C-21.92590517 4.12378467 -24.44244876 4.39876306 -26.95898438 4.67578125 C-28.56503399 4.84960798 -30.1711518 5.02280596 -31.77734375 5.1953125 C-32.52644516 5.27653351 -33.27554657 5.35775452 -34.04734802 5.44143677 C-37.71396998 5.82303457 -41.31289168 6.09336746 -45 6 C-45 5.01 -45 4.02 -45 3 C-44.18917969 3.01160156 -43.37835938 3.02320313 -42.54296875 3.03515625 C-35.34340001 3.09382561 -28.13322143 3.10265446 -21 2 C-20.67 1.67 -20.34 1.34 -20 1 C-13.35786759 0.03926299 -6.69848905 -0.1098113 0 0 Z " fill="#282829" transform="translate(128,235)"/>
<path d="M0 0 C0.99 0 1.98 0 3 0 C4.28571429 8.57142857 4.28571429 8.57142857 3 12 C1.68 12 0.36 12 -1 12 C-1 11.34 -1 10.68 -1 10 C-2.32 10.33 -3.64 10.66 -5 11 C-5 10 -5 9 -5 8 C-5.66 8 -6.32 8 -7 8 C-7 7.34 -7 6.68 -7 6 C-6.21625 5.7525 -5.4325 5.505 -4.625 5.25 C-1.67682892 3.84610901 -1.0975223 2.99324263 0 0 Z " fill="#706D72" transform="translate(301,116)"/>
<path d="M0 0 C3.63 0 7.26 0 11 0 C10.67 0.66 10.34 1.32 10 2 C8.35 2 6.7 2 5 2 C5.33 3.32 5.66 4.64 6 6 C5.01 6.495 5.01 6.495 4 7 C3.59270772 9.32156597 3.25561323 11.6568787 3 14 C2.34 14 1.68 14 1 14 C-0.5456757 9.36297289 -0.05735628 4.87528349 0 0 Z " fill="#7C7980" transform="translate(309,90)"/>
<path d="M0 0 C5.67276511 -0.29341888 8.99067246 -0.00559652 14 3 C14 3.33 14 3.66 14 4 C10.7 4 7.4 4 4 4 C4 7.96 4 11.92 4 16 C3.67 16 3.34 16 3 16 C2.92652344 14.96939453 2.92652344 14.96939453 2.8515625 13.91796875 C2.77679688 13.01691406 2.70203125 12.11585937 2.625 11.1875 C2.55539062 10.29417969 2.48578125 9.40085937 2.4140625 8.48046875 C2.13354964 5.75601501 2.13354964 5.75601501 0 3 C0 2.01 0 1.02 0 0 Z " fill="#ACB8BD" transform="translate(304,84)"/>
<path d="M0 0 C-27.58815789 7.51710526 -27.58815789 7.51710526 -35 7 C-35 6.67 -35 6.34 -35 6 C-33.35 6 -31.7 6 -30 6 C-30 5.34 -30 4.68 -30 4 C-26.42355152 2.7619986 -23.66305234 3.25073929 -20 4 C-20 3.34 -20 2.68 -20 2 C-17.36 2 -14.72 2 -12 2 C-12 1.34 -12 0.68 -12 0 C-10.56359829 -0.19573608 -9.12580496 -0.38127816 -7.6875 -0.5625 C-6.88699219 -0.66691406 -6.08648437 -0.77132812 -5.26171875 -0.87890625 C-3 -1 -3 -1 0 0 Z " fill="#E2E8E7" transform="translate(164,168)"/>
<path d="M0 0 C0 0.66 0 1.32 0 2 C-0.99 2.495 -0.99 2.495 -2 3 C3.445 2.505 3.445 2.505 9 2 C9 3.65 9 5.3 9 7 C7.68 7.33 6.36 7.66 5 8 C5 7.34 5 6.68 5 6 C1.04 6 -2.92 6 -7 6 C-7 5.34 -7 4.68 -7 4 C-2.52941176 0 -2.52941176 0 0 0 Z " fill="#69676B" transform="translate(263,40)"/>
<path d="M0 0 C-0.6875 1.875 -0.6875 1.875 -2 4 C-3.66666667 4.66666667 -5.33333333 5.33333333 -7 6 C-8.1497768 6.97141047 -9.27297046 7.97474106 -10.375 9 C-13.78118354 12.06930824 -16.53694435 13.08917232 -21 14 C-17.27259476 9.78641147 -12.67755976 7.03190182 -8 4 C-6.85326037 3.20964668 -5.70727999 2.41818908 -4.5625 1.625 C-2 0 -2 0 0 0 Z " fill="#D4DBDE" transform="translate(293,153)"/>
<path d="M0 0 C2.64 0 5.28 0 8 0 C8 1.32 8 2.64 8 4 C6.68 4.33 5.36 4.66 4 5 C4 6.65 4 8.3 4 10 C2.68 9.34 1.36 8.68 0 8 C0 5.36 0 2.72 0 0 Z " fill="#68676A" transform="translate(304,130)"/>
<path d="M0 0 C0.66 0.33 1.32 0.66 2 1 C-3.75 6 -3.75 6 -6 6 C-6.42925781 6.46019531 -6.85851562 6.92039063 -7.30078125 7.39453125 C-9.45978931 9.43442162 -11.33780213 9.91030967 -14.1875 10.6875 C-15.08855469 10.93886719 -15.98960937 11.19023437 -16.91796875 11.44921875 C-17.60503906 11.63097656 -18.29210937 11.81273437 -19 12 C-16.63525924 8.45288887 -14.80658197 7.79133269 -11 6 C-10.113125 5.443125 -9.22625 4.88625 -8.3125 4.3125 C-6 3 -6 3 -3 3 C-3 2.34 -3 1.68 -3 1 C-2.01 0.67 -1.02 0.34 0 0 Z " fill="#CAD1D4" transform="translate(270,167)"/>
<path d="M0 0 C3.3 0.33 6.6 0.66 10 1 C8.68 1.99 7.36 2.98 6 4 C5.855625 4.639375 5.71125 5.27875 5.5625 5.9375 C4.71257031 9.05390887 2.54676134 10.17155596 0 12 C-0.33 10.35 -0.66 8.7 -1 7 C0.65 6.67 2.3 6.34 4 6 C3.72382467 4.05925139 3.72382467 4.05925139 3 2 C2.01 1.34 1.02 0.68 0 0 Z " fill="#828289" transform="translate(308,128)"/>
<path d="M0 0 C-2.7481128 0.84003448 -5.49819581 1.67222151 -8.25 2.5 C-9.02730469 2.73847656 -9.80460937 2.97695313 -10.60546875 3.22265625 C-11.73662109 3.56103516 -11.73662109 3.56103516 -12.890625 3.90625 C-13.92751465 4.22045898 -13.92751465 4.22045898 -14.98535156 4.54101562 C-17 5 -17 5 -21 5 C-21 3.68 -21 2.36 -21 1 C-18.03 1.33 -15.06 1.66 -12 2 C-12 1.34 -12 0.68 -12 0 C-4.265625 -1.16015625 -4.265625 -1.16015625 0 0 Z " fill="#DEE4E6" transform="translate(133,15)"/>
<path d="M0 0 C0.99 0.33 1.98 0.66 3 1 C3 1.66 3 2.32 3 3 C3.66 3 4.32 3 5 3 C5 7.95 5 12.9 5 18 C4.01 18.33 3.02 18.66 2 19 C2.02320313 18.04738281 2.04640625 17.09476563 2.0703125 16.11328125 C2.08835937 14.85902344 2.10640625 13.60476562 2.125 12.3125 C2.14820313 11.07113281 2.17140625 9.82976562 2.1953125 8.55078125 C2.01032021 5.18762143 1.45767895 3.0014413 0 0 Z " fill="#DCE7EA" transform="translate(330,93)"/>
<path d="M0 0 C2.46800047 1.15173355 4.04783565 2.04783565 6 4 C5.67 4.99 5.34 5.98 5 7 C4.21625 6.814375 3.4325 6.62875 2.625 6.4375 C0.02910225 5.74037734 0.02910225 5.74037734 -2 7 C-2.99 6.34 -3.98 5.68 -5 5 C-5 4.34 -5 3.68 -5 3 C-3.35 2.67 -1.7 2.34 0 2 C0 1.34 0 0.68 0 0 Z " fill="#95969F" transform="translate(325,90)"/>
<path d="M0 0 C-3.0333779 2.02225194 -5.61344489 2.99347524 -9.0625 4.125 C-10.12597656 4.47820312 -11.18945312 4.83140625 -12.28515625 5.1953125 C-15 6 -15 6 -17 6 C-16.375 4.125 -16.375 4.125 -15 2 C-10.1006606 -0.38992166 -5.31949029 -0.21277961 0 0 Z " fill="#E0E6E8" transform="translate(209,154)"/>
<path d="M0 0 C5.8022175 -0.36263859 9.63999211 0.74315457 15 3 C15 3.66 15 4.32 15 5 C11.17679443 6.42258812 8.08718695 7.24042276 4 7 C5.32 6.67 6.64 6.34 8 6 C8 4.68 8 3.36 8 2 C5.36 1.67 2.72 1.34 0 1 C0 0.67 0 0.34 0 0 Z " fill="#656567" transform="translate(185,16)"/>
<path d="M0 0 C2.64 0 5.28 0 8 0 C8 0.66 8 1.32 8 2 C9.98 2 11.96 2 14 2 C14.33 2.66 14.66 3.32 15 4 C9.78020872 4.1799928 5.92737019 3.97094808 1 2 C1 4.31 1 6.62 1 9 C0.67 9 0.34 9 0 9 C0 6.03 0 3.06 0 0 Z " fill="#716F74" transform="translate(224,26)"/>
<path d="M0 0 C0.33 0 0.66 0 1 0 C1.5625 2.625 1.5625 2.625 1 6 C-2.76837173 9.43656542 -6.96576252 12.01855462 -12 13 C-10.37660195 11.29115995 -8.70680947 9.62553283 -7 8 C-6.34 8 -5.68 8 -5 8 C-5.33 7.01 -5.66 6.02 -6 5 C-5.195625 4.54625 -4.39125 4.0925 -3.5625 3.625 C-0.91143428 2.25274335 -0.91143428 2.25274335 0 0 Z " fill="#707174" transform="translate(292,147)"/>
<path d="M0 0 C0.99 0 1.98 0 3 0 C3 0.66 3 1.32 3 2 C3.99 2.33 4.98 2.66 6 3 C4.35 4.65 2.7 6.3 1 8 C0.01 7.34 -0.98 6.68 -2 6 C-1.125 1.125 -1.125 1.125 0 0 Z " fill="#F1F3ED" transform="translate(10,184)"/>
<path d="M0 0 C0.33 0.66 0.66 1.32 1 2 C-3.51253482 6.7632312 -3.51253482 6.7632312 -6.1875 8.0625 C-8.53854234 9.27855638 -8.93369292 10.63889147 -10 13 C-10.99 13.495 -10.99 13.495 -12 14 C-10.57910701 10.84717276 -8.84968149 8.46222036 -6.5625 5.875 C-5.96566406 5.19179687 -5.36882812 4.50859375 -4.75390625 3.8046875 C-3 2 -3 2 0 0 Z " fill="#DBDBDE" transform="translate(71,148)"/>
<path d="M0 0 C0.66 0.33 1.32 0.66 2 1 C1.375 3.4375 1.375 3.4375 0 6 C-3.125 6.8125 -3.125 6.8125 -6 7 C-6 7.66 -6 8.32 -6 9 C-7.65 9 -9.3 9 -11 9 C-9.948125 8.1646875 -9.948125 8.1646875 -8.875 7.3125 C-5.88655739 4.90875268 -2.94059762 2.46189568 0 0 Z " fill="#8C8E95" transform="translate(296,112)"/>
<path d="M0 0 C0.99 0.33 1.98 0.66 3 1 C3 1.99 3 2.98 3 4 C3.99 4.66 4.98 5.32 6 6 C-2.42857143 8.28571429 -2.42857143 8.28571429 -7 8 C-7 7.34 -7 6.68 -7 6 C-3.535 5.505 -3.535 5.505 0 5 C0 3.35 0 1.7 0 0 Z " fill="#E4EAEA" transform="translate(103,16)"/>
<path d="M0 0 C1.32 0.33 2.64 0.66 4 1 C-0.62 3.64 -5.24 6.28 -10 9 C-9.67 7.68 -9.34 6.36 -9 5 C-8.34 5.33 -7.68 5.66 -7 6 C-7 5.34 -7 4.68 -7 4 C-4 2 -4 2 0 2 C0 1.34 0 0.68 0 0 Z " fill="#E1E5E4" transform="translate(61,148)"/>
<path d="M0 0 C7.17882323 -0.55221717 13.48730418 2.2688695 20 5 C16.45385156 6.18204948 15.21628572 5.71733926 11.6875 4.6875 C10.22957031 4.26597656 10.22957031 4.26597656 8.7421875 3.8359375 C5.80926478 2.94185564 2.89299497 2.01645769 0 1 C0 0.67 0 0.34 0 0 Z " fill="#808287" transform="translate(245,32)"/>
<path d="M0 0 C0.66 0.33 1.32 0.66 2 1 C1.34 3.31 0.68 5.62 0 8 C-2.97 7.505 -2.97 7.505 -6 7 C-4.60667426 3.63279613 -3.0210714 2.0140476 0 0 Z " fill="#908F96" transform="translate(304,105)"/>
<path d="M0 0 C0.33 0 0.66 0 1 0 C1 7.26 1 14.52 1 22 C0.01 22 -0.98 22 -2 22 C-2 21.01 -2 20.02 -2 19 C-1.34 19 -0.68 19 0 19 C0 12.73 0 6.46 0 0 Z " fill="#686A6B" transform="translate(274,96)"/>
<path d="M0 0 C-1.01953125 1.51953125 -1.01953125 1.51953125 -3 3 C-5.67108574 3.05546517 -8.05292823 2.96547069 -10.6875 2.6875 C-11.38939453 2.62626953 -12.09128906 2.56503906 -12.81445312 2.50195312 C-14.5442967 2.34897376 -16.27238497 2.17637398 -18 2 C-18 1.67 -18 1.34 -18 1 C-11.96445452 0.30739642 -6.07593562 -0.11251733 0 0 Z " fill="#DDE0E2" transform="translate(110,171)"/>
<path d="M0 0 C-1.40751221 0.86916887 -2.8264521 1.71985149 -4.25 2.5625 C-5.03890625 3.03816406 -5.8278125 3.51382813 -6.640625 4.00390625 C-9.30844625 5.13022151 -10.34501768 5.0169313 -13 4 C-11.68 3.67 -10.36 3.34 -9 3 C-9 2.34 -9 1.68 -9 1 C-5.47051709 -0.66670026 -3.71727674 -1.13583456 0 0 Z " fill="#383838" transform="translate(237,137)"/>
<path d="M0 0 C-3.68734758 2.45823172 -6.69699971 3.01242616 -11 4 C-8.97717134 -2.06848598 -5.42392029 -1.02338119 0 0 Z " fill="#DAE3E3" transform="translate(180,163)"/>
<path d="M0 0 C0.33 0 0.66 0 1 0 C1.375 2.6875 1.375 2.6875 1 6 C-0.823983 8.06398076 -2.72763839 9.39041053 -5 11 C-5 7.61121488 -4.35638802 6.60242783 -2.5625 3.8125 C-2.11003906 3.09707031 -1.65757812 2.38164063 -1.19140625 1.64453125 C-0.79824219 1.10183594 -0.40507812 0.55914062 0 0 Z " fill="#D8E4E6" transform="translate(331,112)"/>
<path d="M0 0 C0.99 0.66 1.98 1.32 3 2 C0.45217026 4.97246802 -2.45340883 6.41535288 -6 8 C-6.66 8 -7.32 8 -8 8 C-8 7.01 -8 6.02 -8 5 C-5.09399739 3.74335022 -3.20395416 3 0 3 C0 2.01 0 1.02 0 0 Z " fill="#E4EBEC" transform="translate(288,115)"/>
<path d="M0 0 C-2.97 2.475 -2.97 2.475 -6 5 C-6 4.34 -6 3.68 -6 3 C-7.32 3.33 -8.64 3.66 -10 4 C-6.87839899 0.56623888 -4.64008112 -1.54669371 0 0 Z " fill="#767578" transform="translate(75,145)"/>
<path d="M0 0 C0.33 0.66 0.66 1.32 1 2 C-2.17320782 5.53586014 -4.16743695 7.58578031 -9 8 C-6.14723863 5.06799526 -3.34920216 2.35684596 0 0 Z " fill="#D5DADD" transform="translate(303,144)"/>
<path d="M0 0 C2.64 0 5.28 0 8 0 C8 1.32 8 2.64 8 4 C7.34 4 6.68 4 6 4 C6 3.01 6 2.02 6 1 C5.38125 1.495 4.7625 1.99 4.125 2.5 C2 4 2 4 0 4 C0 2.68 0 1.36 0 0 Z " fill="#716E74" transform="translate(304,130)"/>
<path d="M0 0 C0.99 0.33 1.98 0.66 3 1 C2.34 1 1.68 1 1 1 C0.773125 1.7425 0.54625 2.485 0.3125 3.25 C-1.24407532 6.51139591 -3.08518854 7.92894975 -6 10 C-6.33 8.68 -6.66 7.36 -7 6 C-6.21625 5.938125 -5.4325 5.87625 -4.625 5.8125 C-3.75875 5.544375 -2.8925 5.27625 -2 5 C-0.62533375 2.52363988 -0.62533375 2.52363988 0 0 Z " fill="#91939A" transform="translate(320,125)"/>
<path d="M0 0 C-3.625 3 -3.625 3 -7 3 C-7 3.66 -7 4.32 -7 5 C-7.99 4.67 -8.98 4.34 -10 4 C-9.34 4 -8.68 4 -8 4 C-8 3.01 -8 2.02 -8 1 C-5.29120665 -0.35439668 -2.99066732 -0.06501451 0 0 Z " fill="#E6EBEA" transform="translate(255,186)"/>
<path d="M0 0 C3.63 0.33 7.26 0.66 11 1 C11 1.66 11 2.32 11 3 C11.66 3.33 12.32 3.66 13 4 C8.51474352 3.343621 4.33085971 2.29925791 0 1 C0 0.67 0 0.34 0 0 Z " fill="#D3DDDF" transform="translate(251,32)"/>
<path d="M0 0 C2.31 0.33 4.62 0.66 7 1 C5.75 2.5 5.75 2.5 4 4 C2.68 4 1.36 4 0 4 C0 2.68 0 1.36 0 0 Z " fill="#E8EDEB" transform="translate(112,16)"/>
<path d="M0 0 C-0.5625 1.875 -0.5625 1.875 -2 4 C-5.625 5.25 -5.625 5.25 -9 6 C-3.15384615 0 -3.15384615 0 0 0 Z " fill="#CDD3D7" transform="translate(293,153)"/>
<path d="M0 0 C-0.99 1.485 -0.99 1.485 -2 3 C-4.1640625 3.29296875 -4.1640625 3.29296875 -6.625 3.1875 C-7.44226563 3.16042969 -8.25953125 3.13335938 -9.1015625 3.10546875 C-9.72804687 3.07066406 -10.35453125 3.03585938 -11 3 C-11 2.67 -11 2.34 -11 2 C-7.17679443 0.57741188 -4.08718695 -0.24042276 0 0 Z " fill="#D1D9DB" transform="translate(187,25)"/>
<path d="M0 0 C-0.33 0.99 -0.66 1.98 -1 3 C-5.455 2.01 -5.455 2.01 -10 1 C-10 0.67 -10 0.34 -10 0 C-6.33694766 -0.74926071 -3.57644848 -1.2380014 0 0 Z " fill="#DDE2E1" transform="translate(129,169)"/>
<path d="M0 0 C2.75 -0.25 2.75 -0.25 6 0 C8.375 2 8.375 2 10 4 C8.51882199 3.71872579 7.04006751 3.42466268 5.5625 3.125 C4.73878906 2.96257812 3.91507812 2.80015625 3.06640625 2.6328125 C2.38449219 2.42398438 1.70257813 2.21515625 1 2 C0.67 1.34 0.34 0.68 0 0 Z " fill="#DAE4E8" transform="translate(317,86)"/>
<path d="M0 0 C0.66 0.33 1.32 0.66 2 1 C-0.97 3.475 -0.97 3.475 -4 6 C-4 3 -4 3 -3 1 C-2.01 0.67 -1.02 0.34 0 0 Z " fill="#DEE1E4" transform="translate(270,167)"/>
<path d="M0 0 C0.66 0.33 1.32 0.66 2 1 C0.35 2.65 -1.3 4.3 -3 6 C-4.32 5.34 -5.64 4.68 -7 4 C-5.68 4 -4.36 4 -3 4 C-3 3.34 -3 2.68 -3 2 C-2.01 1.34 -1.02 0.68 0 0 Z " fill="#848489" transform="translate(283,121)"/>
<path d="M0 0 C1.65 0 3.3 0 5 0 C3.69593116 2.01920337 2.36176581 4.01924973 1 6 C0.67 6 0.34 6 0 6 C0 4.02 0 2.04 0 0 Z " fill="#95A0A7" transform="translate(323,118)"/>
</svg>
