<?xml version="1.0" encoding="UTF-8"?>
<svg version="1.1" xmlns="http://www.w3.org/2000/svg" width="820" height="200">
<path d="M0 0 C270.6 0 541.2 0 820 0 C820 66 820 132 820 200 C549.4 200 278.8 200 0 200 C0 134 0 68 0 0 Z " fill="#FDFDFD" transform="translate(0,0)"/>
<path d="M0 0 C2.97 0.33 5.94 0.66 9 1 C9 1.66 9 2.32 9 3 C10.216875 3.0825 11.43375 3.165 12.6875 3.25 C19.55003388 3.99307692 26.8103142 5.9051571 33 9 C33.33 26.82 33.66 44.64 34 63 C41.28021797 59.12735873 41.28021797 59.12735873 47.4375 54.375 C48.07558594 53.80523437 48.71367187 53.23546875 49.37109375 52.6484375 C51.36280824 50.63284154 52.88745311 48.94615687 53.23046875 46.0625 C53.21628906 45.381875 53.20210937 44.70125 53.1875 44 C53.18105469 43.319375 53.17460937 42.63875 53.16796875 41.9375 C53.05697746 39.78241791 53.05697746 39.78241791 52 37 C58.45702582 37.98739228 63.60986202 39.21543504 69 43 C70.59911449 47.79734346 70.64602766 52.14267048 69 56.875 C64.85120543 63.35749152 60.30263876 69.48622901 54 74 C53.34 74 52.68 74 52 74 C52 74.66 52 75.32 52 76 C49.78423866 77.78031091 47.57273184 79.43336169 45.25 81.0625 C44.61578125 81.52205078 43.9815625 81.98160156 43.328125 82.45507812 C40.20946423 84.66737811 37.79500851 86.23092397 34 87 C34 87.66 34 88.32 34 89 C10.21375093 102.67435286 -15.06173292 116.01371843 -42 122 C-42 140.81 -42 159.62 -42 179 C-57.76274714 176.74817898 -57.76274714 176.74817898 -63.24609375 175.5625 C-64.43267578 175.30726563 -65.61925781 175.05203125 -66.84179688 174.7890625 C-68.02837891 174.52867187 -69.21496094 174.26828125 -70.4375 174 C-71.65115234 173.73960937 -72.86480469 173.47921875 -74.11523438 173.2109375 C-79.82501781 171.97334897 -85.37186718 170.60803795 -91 169 C-91.33 156.79 -91.66 144.58 -92 132 C-95.3825 131.87625 -98.765 131.7525 -102.25 131.625 C-130.14303445 130.39538615 -130.14303445 130.39538615 -137.7421875 122.09765625 C-139.93183934 118.4459698 -139.80526612 115.11213767 -139 111 C-134.50921754 101.46106846 -125.6213532 93.77683341 -117 88 C-116.34 88 -115.68 88 -115 88 C-115 87.34 -115 86.68 -115 86 C-114.05125 85.46375 -113.1025 84.9275 -112.125 84.375 C-109.84349597 83.08261428 -107.60349561 81.75240635 -105.37890625 80.36328125 C-104.49074219 79.81027344 -103.60257813 79.25726563 -102.6875 78.6875 C-101.84574219 78.15511719 -101.00398438 77.62273437 -100.13671875 77.07421875 C-99.43160156 76.71972656 -98.72648437 76.36523438 -98 76 C-97.01 76.495 -97.01 76.495 -96 77 C-96.56589844 77.55429688 -97.13179687 78.10859375 -97.71484375 78.6796875 C-98.81505859 79.76636719 -98.81505859 79.76636719 -99.9375 80.875 C-100.66839844 81.59429687 -101.39929688 82.31359375 -102.15234375 83.0546875 C-104.67817161 85.71401578 -104.96833657 86.7097519 -105.375 90.4375 C-105.40755057 94.10324894 -105.40755057 94.10324894 -102.75 95.875 C-80.76502624 104.8688529 -46.39705541 93.70390664 -25 87 C-23.59263464 86.56970131 -22.18507138 86.14004954 -20.77734375 85.7109375 C-13.4203243 83.50851043 -13.4203243 83.50851043 -6.22265625 80.8515625 C-4 80 -4 80 -1 80 C-0.505 40.4 -0.505 40.4 0 0 Z " fill="#454545" transform="translate(144,14)"/>
<path d="M0 0 C63.95 0 63.95 0 74 9 C81.35085413 18.39945283 82.02071477 28.46421243 81 40 C79.09688017 49.42388252 74.09667136 56.42787223 66.1875 61.8125 C53.75836912 68.88097519 38.8843465 69 25 69 C25 81.21 25 93.42 25 106 C16.75 106 8.5 106 0 106 C0 71.02 0 36.04 0 0 Z " fill="#040404" transform="translate(416,76)"/>
<path d="M0 0 C9.57 0 19.14 0 29 0 C30.61455078 4.57101563 30.61455078 4.57101563 32.26171875 9.234375 C39.1749273 28.79587571 46.08875256 48.3573409 53.125 67.875 C53.39020447 68.61100433 53.65540894 69.34700867 53.9286499 70.10531616 C57.20382239 79.18235658 60.52615317 88.23792361 64.17431641 97.17333984 C65.30393812 99.97207123 66 101.94415915 66 105 C57.75 105 49.5 105 41 105 C39.88625 102.15375 38.7725 99.3075 37.625 96.375 C37.10413818 95.04734619 37.10413818 95.04734619 36.57275391 93.69287109 C36.29351074 92.97695801 36.01426758 92.26104492 35.7265625 91.5234375 C35.30238037 90.4394165 35.30238037 90.4394165 34.86962891 89.33349609 C33.84367987 86.58054244 32.92904926 83.78714778 32 81 C13.685 80.505 13.685 80.505 -5 80 C-5.33 82.64 -5.66 85.28 -6 88 C-6.90234375 90.9765625 -6.90234375 90.9765625 -7.9375 93.625 C-9.39482594 97.40407336 -10.71546791 101.14640372 -12 105 C-20.25 105 -28.5 105 -37 105 C-35.61172114 98.75274514 -34.11916292 93.10892896 -31.90234375 87.18359375 C-31.59588425 86.34913223 -31.28942474 85.51467072 -30.97367859 84.65492249 C-30.31168634 82.85354062 -29.64722697 81.05306383 -28.98052979 79.25341797 C-27.17939802 74.3908154 -25.39654537 69.5215217 -23.61328125 64.65234375 C-23.23999695 63.63413544 -22.86671265 62.61592712 -22.4821167 61.56686401 C-17.3318763 47.48607992 -12.37542138 33.33595944 -7.40991211 19.18920898 C-6.72380964 17.2407177 -6.0376938 15.29223113 -5.3515625 13.34375 C-5.04079269 12.45406021 -4.73002289 11.56437042 -4.40983582 10.64772034 C-4.12070816 9.82746872 -3.83158051 9.0072171 -3.53369141 8.16210938 C-3.28438873 7.45098999 -3.03508606 6.73987061 -2.77822876 6.00720215 C-1.98069962 3.95022059 -0.98663325 1.9732665 0 0 Z " fill="#030303" transform="translate(258,76)"/>
<path d="M0 0 C0 0.66 0 1.32 0 2 C4.95 2.495 4.95 2.495 10 3 C10 3.66 10 4.32 10 5 C9.31035156 5.18175781 8.62070313 5.36351562 7.91015625 5.55078125 C2.61611964 6.96688158 -2.5869661 8.46688129 -7.734375 10.3515625 C-10.75032087 11.21474701 -13.89448931 11.55635562 -17 12 C-17 39.39 -17 66.78 -17 95 C-48.5 102 -48.5 102 -66 102 C-66 71.31 -66 40.62 -66 9 C-61.71 8.01 -57.42 7.02 -53 6 C-51.02 5.34 -49.04 4.68 -47 4 C-43.74905558 3.21093582 -40.48650378 2.49704368 -37.21875 1.78125 C-34.06978194 1.01693736 -31.06403135 0.04921128 -28 -1 C-18.17652011 -3.93161442 -9.84137855 -2.11620457 0 0 Z " fill="#444444" transform="translate(119,6)"/>
<path d="M0 0 C8.25049966 6.98397559 12.0256689 14.32003299 13.109375 25.01171875 C14.12139311 40.09078855 12.97978244 52.52093331 2.984375 64.57421875 C-7.02383905 73.0594437 -18.17350999 74.73214645 -30.890625 74.01171875 C-38.87522862 73.23334544 -46.09290149 69.87326955 -51.75 64.12109375 C-60.96713063 52.53123642 -60.91444029 37.87193666 -59.58203125 23.73828125 C-58.14369358 14.65002378 -54.55199113 6.46988626 -47.14453125 0.63671875 C-33.57172921 -8.53926009 -13.70145945 -9.42438225 0 0 Z " fill="#030303" transform="translate(557.890625,107.98828125)"/>
<path d="M0 0 C8.97827809 9.81999166 9.16349372 22.66264586 9.09765625 35.25 C9.0962413 36.28189453 9.09482635 37.31378906 9.09336853 38.37695312 C9.08780642 41.64716589 9.07526102 44.9173082 9.0625 48.1875 C9.0574801 50.41536359 9.05291805 52.64322826 9.04882812 54.87109375 C9.03784941 60.30992266 9.02061113 65.74869941 9 71.1875 C2.4 71.1875 -4.2 71.1875 -11 71.1875 C-11.495 67.7225 -11.495 67.7225 -12 64.1875 C-12.78503906 64.59742188 -13.57007813 65.00734375 -14.37890625 65.4296875 C-25.35459851 71.05893826 -34.9957341 74.06823877 -47.47265625 71.72265625 C-53.1487422 69.87437393 -57.40357963 66.25923299 -60.1328125 61.0078125 C-62.24960677 54.12346358 -62.39330761 45.12372644 -59.97265625 38.28515625 C-54.83613596 29.96143224 -46.91652102 25.98931625 -37.67578125 23.73046875 C-32.09018969 22.59704214 -26.82757581 22.05316523 -21.125 22.125 C-20.43664062 22.12951172 -19.74828125 22.13402344 -19.0390625 22.13867188 C-17.35933665 22.15033664 -15.67965625 22.16826729 -14 22.1875 C-14.96991741 17.75694321 -14.96991741 17.75694321 -18.18359375 14.8359375 C-27.49816649 12.69138955 -36.59983781 13.7706299 -45.4140625 17.21484375 C-47.93961266 18.16478633 -50.34530957 18.7322733 -53 19.1875 C-54.17491582 17.42212904 -55.33968684 15.65000287 -56.5 13.875 C-57.1496875 12.88886719 -57.799375 11.90273437 -58.46875 10.88671875 C-60 8.1875 -60 8.1875 -60 5.1875 C-44.13201423 -7.72029754 -17.59934414 -10.63293708 0 0 Z " fill="#040404" transform="translate(758,107.8125)"/>
<path d="M0 0 C7.26 0 14.52 0 22 0 C22 6.93 22 13.86 22 21 C28.6 21 35.2 21 42 21 C42 26.94 42 32.88 42 39 C35.07 39 28.14 39 21 39 C21.1204633 43.14445024 21.24336326 47.28868623 21.37231445 51.43286133 C21.41538658 52.84004557 21.45707864 54.24727282 21.49731445 55.65454102 C21.5556957 57.68779408 21.61918685 59.72083617 21.68359375 61.75390625 C21.73858032 63.58417358 21.73858032 63.58417358 21.79467773 65.45141602 C22.00279692 69.04833907 22.25725571 72.47148938 23 76 C27.68750637 79.12500425 32.62995703 78.38694579 38.0625 77.5 C38.701875 77.335 39.34125 77.17 40 77 C42.18105678 80.68813893 43.92777008 83.79616793 44.1875 88.125 C42.48367105 92.25005956 39.76107629 94.6572658 36 97 C28.44856047 100.04961981 19.70945419 100.45739886 12.0625 97.4375 C6.61578565 94.59399471 2.97587769 90.78027578 0.93774414 84.97363281 C-0.31185434 80.43861015 -0.25138156 76.0226942 -0.1953125 71.34765625 C-0.1924826 70.44752304 -0.18965271 69.54738983 -0.18673706 68.61997986 C-0.17561278 65.7673468 -0.15052283 62.91503689 -0.125 60.0625 C-0.11496017 58.11914518 -0.10583608 56.17578541 -0.09765625 54.23242188 C-0.07569888 49.48815824 -0.04122301 44.74413376 0 40 C-4.62 40 -9.24 40 -14 40 C-14 33.73 -14 27.46 -14 21 C-9.38 21 -4.76 21 0 21 C0 14.07 0 7.14 0 0 Z " fill="#030303" transform="translate(646,84)"/>
<path d="M0 0 C7.59 0 15.18 0 23 0 C23 36.96 23 73.92 23 112 C15.41 112 7.82 112 0 112 C0 75.04 0 38.08 0 0 Z " fill="#050505" transform="translate(778,70)"/>
<path d="M0 0 C7.92 0 15.84 0 24 0 C24 34.65 24 69.3 24 105 C16.08 105 8.16 105 0 105 C0 70.35 0 35.7 0 0 Z " fill="#020202" transform="translate(334,76)"/>
<path d="M0 0 C0 25.74 0 51.48 0 78 C-10.89 78 -21.78 78 -33 78 C-33 57.54 -33 37.08 -33 16 C-30.03 14.68 -27.06 13.36 -24 12 C-22.68 11.34 -21.36 10.68 -20 10 C-19.01 10 -18.02 10 -17 10 C-17 9.34 -17 8.68 -17 8 C-14.35535616 6.66426106 -11.70937327 5.33130754 -9.0625 4 C-8.30775391 3.6184375 -7.55300781 3.236875 -6.77539062 2.84375 C-6.05673828 2.4828125 -5.33808594 2.121875 -4.59765625 1.75 C-3.93258057 1.41484375 -3.26750488 1.0796875 -2.58227539 0.734375 C-1 0 -1 0 0 0 Z " fill="#474848" transform="translate(177,110)"/>
<path d="M0 0 C0 18.15 0 36.3 0 55 C-8.99746085 55 -8.99746085 55 -13.50390625 54.01171875 C-14.48544678 53.8012793 -15.4669873 53.59083984 -16.47827148 53.37402344 C-17.49606689 53.1474707 -18.5138623 52.92091797 -19.5625 52.6875 C-21.68997698 52.22727626 -23.81758128 51.76764065 -25.9453125 51.30859375 C-26.9755957 51.08413574 -28.00587891 50.85967773 -29.06738281 50.62841797 C-34.18439761 49.5319148 -39.32432479 48.55727147 -44.46484375 47.578125 C-47 47 -47 47 -48 46 C-48.08861992 43.1883662 -48.11522355 40.40141745 -48.09765625 37.58984375 C-48.0962413 36.74780899 -48.09482635 35.90577423 -48.09336853 35.03822327 C-48.08775263 32.33794665 -48.07519748 29.63775172 -48.0625 26.9375 C-48.05748705 25.11132932 -48.05292379 23.28515734 -48.04882812 21.45898438 C-48.03777804 16.97262458 -48.02050279 12.48632616 -48 8 C-42.86120619 6.81265584 -37.75801101 5.734962 -32.53125 5 C-31.38269531 4.835 -30.23414062 4.67 -29.05078125 4.5 C-26.68359375 4.16666667 -24.31640625 3.83333333 -21.94921875 3.5 C-16.87212762 2.77063113 -11.84476927 2.02410152 -6.84375 0.875 C-3 0 -3 0 0 0 Z " fill="#3B3B3C" transform="translate(101,137)"/>
<path d="M0 0 C0.12036664 5.77759884 -0.1679418 11.27959989 -1 17 C-2.02480469 17.15855469 -3.04960938 17.31710938 -4.10546875 17.48046875 C-5.46632666 17.71509942 -6.82699435 17.9508353 -8.1875 18.1875 C-8.86103516 18.28869141 -9.53457031 18.38988281 -10.22851562 18.49414062 C-15.3487787 19.41828567 -17.8861593 20.85359037 -21 25 C-24.39625093 31.71470377 -25.59879405 37.69677714 -25.609375 45.1640625 C-25.62591125 46.08214691 -25.64244751 47.00023132 -25.65948486 47.94613647 C-25.707539 50.83916189 -25.7292402 53.73166345 -25.75 56.625 C-25.77819539 58.60289034 -25.80812773 60.58075673 -25.83984375 62.55859375 C-25.91651318 67.37262697 -25.95742764 72.18506575 -26 77 C-33.59 77 -41.18 77 -49 77 C-49 51.92 -49 26.84 -49 1 C-41.41 1 -33.82 1 -26 1 C-25.67 4.63 -25.34 8.26 -25 12 C-24.154375 10.783125 -23.30875 9.56625 -22.4375 8.3125 C-16.03859178 -0.12446797 -10.531778 -2.84895103 0 0 Z " fill="#010101" transform="translate(629,103)"/>
<path d="M0 0 C2.97 0.33 5.94 0.66 9 1 C9 1.66 9 2.32 9 3 C10.216875 3.0825 11.43375 3.165 12.6875 3.25 C19.55003388 3.99307692 26.8103142 5.9051571 33 9 C33 25.83 33 42.66 33 60 C24 64 24 64 22 64 C22 64.66 22 65.32 22 66 C20.91460937 66.32613281 19.82921875 66.65226562 18.7109375 66.98828125 C17.26553999 67.42940906 15.82023222 67.87083096 14.375 68.3125 C13.66214844 68.52583984 12.94929687 68.73917969 12.21484375 68.95898438 C11.51230469 69.17490234 10.80976563 69.39082031 10.0859375 69.61328125 C9.4470459 69.80704346 8.8081543 70.00080566 8.14990234 70.20043945 C5.34053778 71.24525764 2.68092138 72.65953931 0 74 C0 49.58 0 25.16 0 0 Z " fill="#5A5A5A" transform="translate(144,14)"/>
<path d="M0 0 C4.37135704 2.22541813 7.98867943 4.89481855 9.5546875 9.703125 C11.01220333 17.22083823 11.32220987 25.84082927 7.1796875 32.51171875 C4.60438816 35.76068911 2.56949501 36.81041268 -1.5546875 37.30859375 C-6.10879701 37.51223279 -9.30169794 37.31174199 -13.5 35.4375 C-18.70408135 30.36352068 -19.19522064 26.05633997 -19.375 19 C-19.18744809 11.63077294 -18.35664043 7.70151464 -13.4375 2.0625 C-9.36741726 -1.00274935 -4.8585268 -0.86110475 0 0 Z " fill="#F9F9F9" transform="translate(539,123)"/>
<path d="M0 0 C3.691875 -0.061875 7.38375 -0.12375 11.1875 -0.1875 C12.3427417 -0.21481201 13.4979834 -0.24212402 14.68823242 -0.27026367 C15.60967041 -0.27775635 16.5311084 -0.28524902 17.48046875 -0.29296875 C18.41785889 -0.3086792 19.35524902 -0.32438965 20.32104492 -0.34057617 C24.32568098 0.16853413 26.94703958 1.98334856 29.8125 4.75 C31.52868326 8.00171564 31.38162088 10.37460162 31 14 C29.07262511 18.87512472 25.61178813 20.90197479 21 23 C14.16294213 25.79063587 7.3125977 25.13928758 0 25 C0 16.75 0 8.5 0 0 Z " fill="#FCFCFC" transform="translate(441,98)"/>
<path d="M0 0 C6.45702582 0.98739228 11.60986202 2.21543504 17 6 C18.59911449 10.79734346 18.64602766 15.14267048 17 19.875 C12.85120543 26.35749152 8.30263876 32.48622901 2 37 C1.34 37 0.68 37 0 37 C0 37.66 0 38.32 0 39 C-0.66 39 -1.32 39 -2 39 C-1.34 35.7 -0.68 32.4 0 29 C-0.99 29 -1.98 29 -3 29 C-3 28.34 -3 27.68 -3 27 C-4.11375 27.12375 -4.11375 27.12375 -5.25 27.25 C-8.7978688 26.92746647 -9.64925043 25.55166834 -12 23 C-11.31292969 22.46890625 -10.62585938 21.9378125 -9.91796875 21.390625 C-9.01691406 20.68421875 -8.11585938 19.9778125 -7.1875 19.25 C-5.84751953 18.20585938 -5.84751953 18.20585938 -4.48046875 17.140625 C-0.46782323 13.73059493 -0.46782323 13.73059493 1.328125 8.96484375 C1.20462701 5.76007101 1.0191907 3.0575721 0 0 Z " fill="#7B787F" transform="translate(196,51)"/>
<path d="M0 0 C0.66 0 1.32 0 2 0 C4.46905387 7.31608996 6.91902033 14.63856053 9.25 22 C9.56453125 22.99 9.8790625 23.98 10.203125 25 C11 28 11 28 12 35 C4.74 35 -2.52 35 -10 35 C-8.70127611 26.76335638 -6.60283614 19.18274102 -3.875 11.3125 C-3.50246094 10.21744141 -3.12992187 9.12238281 -2.74609375 7.99414062 C-1.83762798 5.32697829 -0.92219319 2.6624403 0 0 Z " fill="#F1F1F1" transform="translate(271,101)"/>
<path d="M0 0 C0.75410156 0.00322266 1.50820313 0.00644531 2.28515625 0.00976562 C3.06246094 0.01814453 3.83976563 0.02652344 4.640625 0.03515625 C5.43339844 0.03966797 6.22617187 0.04417969 7.04296875 0.04882812 C8.99222008 0.0605706 10.94143238 0.07850479 12.890625 0.09765625 C12.890625 4.05765625 12.890625 8.01765625 12.890625 12.09765625 C5.86861234 15.35424183 -0.3103592 17.53959647 -8.109375 16.09765625 C-11.77593878 13.6532804 -12.85688313 12.33486643 -13.734375 8.03515625 C-13.109375 5.09765625 -13.109375 5.09765625 -10.859375 2.78515625 C-7.18931732 0.5330754 -4.26382328 -0.03230169 0 0 Z " fill="#FAFAFA" transform="translate(731.109375,145.90234375)"/>
<path d="M0 0 C0 2.31 0 4.62 0 7 C-3.3 7.33 -6.6 7.66 -10 8 C-10 8.66 -10 9.32 -10 10 C-22.24430216 12.56994615 -34.43133949 15.08585151 -47 15 C-48 14 -48 14 -48.0625 10.9375 C-48.041875 9.968125 -48.02125 8.99875 -48 8 C-39.38943773 5.93935262 -30.71042317 4.73370095 -21.94921875 3.5 C-16.87212762 2.77063113 -11.84476927 2.02410152 -6.84375 0.875 C-3 0 -3 0 0 0 Z " fill="#1F1F1F" transform="translate(101,137)"/>
<path d="M0 0 C0 1.65 0 3.3 0 5 C-16.9971152 12.61093047 -16.9971152 12.61093047 -24.9375 16 C-25.85402344 16.391875 -26.77054688 16.78375 -27.71484375 17.1875 C-30 18 -30 18 -33 18 C-33 15.75 -33 15.75 -32 13 C-26.46754158 8.86871251 -17.85975563 6 -11 6 C-11 5.34 -11 4.68 -11 4 C-9.5437455 3.32880451 -8.08492133 2.66318193 -6.625 2 C-5.81289062 1.62875 -5.00078125 1.2575 -4.1640625 0.875 C-2 0 -2 0 0 0 Z " fill="#252525" transform="translate(177,74)"/>
<path d="M0 0 C6.45702582 0.98739228 11.60986202 2.21543504 17 6 C18.69938759 11.09816276 18.63928388 15.38656926 16.6875 20.3125 C15.26800295 22.57318049 14.01410932 24.27362058 12 26 C10.74335022 23.09399739 10 21.20395416 10 18 C10.66 18 11.32 18 12 18 C12 14.7 12 11.4 12 8 C11.030625 7.87625 10.06125 7.7525 9.0625 7.625 C8.051875 7.41875 7.04125 7.2125 6 7 C5.67 6.34 5.34 5.68 5 5 C4.01 5 3.02 5 2 5 C1.34 3.35 0.68 1.7 0 0 Z " fill="#8C8D96" transform="translate(196,51)"/>
<path d="M0 0 C6.06732052 1.03767051 11.4373852 2.33961901 17 5 C17 6.65 17 8.3 17 10 C15.35 10 13.7 10 12 10 C12 9.34 12 8.68 12 8 C10.9275 8.226875 9.855 8.45375 8.75 8.6875 C5 9 5 9 2.625 7.9375 C0.48568235 5.3867751 0.2904338 3.26738025 0 0 Z " fill="#737377" transform="translate(160,18)"/>
<path d="M0 0 C2.97 0.33 5.94 0.66 9 1 C9 1.33 9 1.66 9 2 C8.030625 1.979375 7.06125 1.95875 6.0625 1.9375 C3.12534105 1.64381501 3.12534105 1.64381501 2 3 C1.87593185 5.20794411 1.82197722 7.41984486 1.79467773 9.63110352 C1.78477814 10.32375305 1.77487854 11.01640259 1.76467896 11.7300415 C1.7329797 14.02962779 1.70827349 16.32923477 1.68359375 18.62890625 C1.66303148 20.21932018 1.64203521 21.80972855 1.62062073 23.40013123 C1.56532491 27.59389763 1.5159489 31.78771395 1.46777344 35.98156738 C1.41761309 40.25793928 1.36189856 44.53423834 1.30664062 48.81054688 C1.19896726 57.20696973 1.09754284 65.60345338 1 74 C0.67 74 0.34 74 0 74 C0 49.58 0 25.16 0 0 Z " fill="#7F8183" transform="translate(144,14)"/>
<path d="M0 0 C0.66 0 1.32 0 2 0 C3.55944339 3.11888678 3.28316275 5.5454145 3 9 C1.87302723 11.53937969 0.52802548 13.66021098 -1 16 C-3.5654594 13.4345406 -3.54046087 11.52313332 -4 8 C-2.68 8 -1.36 8 0 8 C0 5.36 0 2.72 0 0 Z " fill="#898691" transform="translate(210,61)"/>
<path d="M0 0 C2.475 0.495 2.475 0.495 5 1 C5 1.99 5 2.98 5 4 C6.32 4.33 7.64 4.66 9 5 C8.67 6.32 8.34 7.64 8 9 C5.03824877 8.38722388 3.61941217 7.74627478 1 6 C0.3125 2.875 0.3125 2.875 0 0 Z " fill="#69666A" transform="translate(160,18)"/>
<path d="M0 0 C-0.66 1.65 -1.32 3.3 -2 5 C-2.33 4.34 -2.66 3.68 -3 3 C-4.175625 3.0928125 -4.175625 3.0928125 -5.375 3.1875 C-6.24125 3.125625 -7.1075 3.06375 -8 3 C-8.66 2.01 -9.32 1.02 -10 0 C-5.91847062 -2.09907226 -4.08152938 -2.09907226 0 0 Z " fill="#6A686B" transform="translate(196,75)"/>
<path d="M0 0 C0.66 0.99 1.32 1.98 2 3 C2.99 3.33 3.98 3.66 5 4 C4.6875 5.875 4.6875 5.875 4 8 C1 10 1 10 -1.1875 9.625 C-1.785625 9.41875 -2.38375 9.2125 -3 9 C-2.34 8.01 -1.68 7.02 -1 6 C-0.60986284 4.0103005 -0.26797351 2.00980131 0 0 Z " fill="#84848A" transform="translate(198,56)"/>
<path d="M0 0 C1.60568666 0.28317926 3.20952047 0.57687791 4.8125 0.875 C6.15248047 1.11863281 6.15248047 1.11863281 7.51953125 1.3671875 C10 2 10 2 13 4 C10.24921116 4.91692961 8.64051087 5.10886083 5.8125 5.0625 C3.9253125 5.0315625 3.9253125 5.0315625 2 5 C1.34 3.35 0.68 1.7 0 0 Z " fill="#999FA5" transform="translate(196,51)"/>
<path d="M0 0 C-2.64 1.98 -5.28 3.96 -8 6 C-8.33 5.01 -8.66 4.02 -9 3 C-7 0 -7 0 -5.0625 -0.75 C-3 -1 -3 -1 0 0 Z " fill="#747479" transform="translate(194,91)"/>
<path d="M0 0 C0.33 0.99 0.66 1.98 1 3 C-1.48915682 6.98265091 -5.08007583 10.43697266 -9 13 C-9.66 12.67 -10.32 12.34 -11 12 C-9.625 10.5 -9.625 10.5 -8 9 C-7.34 9 -6.68 9 -6 9 C-5.7525 8.443125 -5.505 7.88625 -5.25 7.3125 C-3.78393985 4.60028873 -1.97010529 2.36412635 0 0 Z " fill="#E1E6E9" transform="translate(209,75)"/>
<path d="M0 0 C0.99 0.33 1.98 0.66 3 1 C4.28317892 4.84953676 4.06643637 7.94738135 4 12 C3.67 12 3.34 12 3 12 C2.67 9.69 2.34 7.38 2 5 C1.34 5 0.68 5 0 5 C0 3.35 0 1.7 0 0 Z " fill="#93979F" transform="translate(210,56)"/>
<path d="M0 0 C0.66 0 1.32 0 2 0 C2 0.66 2 1.32 2 2 C1.34 2 0.68 2 0 2 C0 3.65 0 5.3 0 7 C-0.66 7 -1.32 7 -2 7 C-2 7.66 -2 8.32 -2 9 C-2.66 9 -3.32 9 -4 9 C-2.25 2.25 -2.25 2.25 0 0 Z " fill="#716F75" transform="translate(198,81)"/>
<path d="M0 0 C0.66 0 1.32 0 2 0 C2 0.66 2 1.32 2 2 C2.99 2 3.98 2 5 2 C4.42655063 4.86724686 4.1385485 5.8614515 2 8 C0.74335022 5.09399739 0 3.20395416 0 0 Z " fill="#8C9096" transform="translate(206,69)"/>
<path d="M0 0 C0.66 0.33 1.32 0.66 2 1 C-1.465 3.97 -1.465 3.97 -5 7 C-5.66 6.01 -6.32 5.02 -7 4 C-1.7265625 0.77734375 -1.7265625 0.77734375 0 0 Z " fill="#57585A" transform="translate(46,90)"/>
</svg>
